<svg xmlns="http://www.w3.org/2000/svg" width="192" height="192" viewBox="0 0 192 192">
  <rect width="192" height="192" rx="24" fill="#1a1a1a"/>
  <!-- Treemap-style layout representing sectors -->
  <rect x="6" y="6" width="100" height="90" rx="6" fill="#19a019"/>
  <rect x="110" y="6" width="76" height="50" rx="6" fill="#a01919"/>
  <rect x="110" y="60" width="76" height="36" rx="6" fill="#378237"/>
  <rect x="6" y="100" width="60" height="46" rx="6" fill="#c03030"/>
  <rect x="70" y="100" width="56" height="46" rx="6" fill="#414141"/>
  <rect x="130" y="100" width="56" height="46" rx="6" fill="#0a780a"/>
  <rect x="6" y="150" width="50" height="36" rx="6" fill="#8b3030"/>
  <rect x="60" y="150" width="45" height="36" rx="6" fill="#378237"/>
  <rect x="109" y="150" width="38" height="36" rx="6" fill="#a01919"/>
  <rect x="151" y="150" width="35" height="36" rx="6" fill="#414141"/>
  <text x="56" y="56" text-anchor="middle" fill="white" font-size="18" font-weight="bold" font-family="sans-serif">XLK</text>
  <text x="148" y="36" text-anchor="middle" fill="white" font-size="13" font-weight="bold" font-family="sans-serif">XLY</text>
  <text x="148" y="82" text-anchor="middle" fill="white" font-size="11" font-weight="bold" font-family="sans-serif">XLF</text>
</svg>
